<svg width="400" height="120" viewBox="0 0 400 120" fill="none" xmlns="http://www.w3.org/2000/svg">
<line x1="52" y1="84.75" x2="136" y2="84.75" stroke="#00AFB9" stroke-width="0.5"/>
<line x1="265" y1="84.75" x2="349" y2="84.75" stroke="#0081A7" stroke-width="0.5"/>
<path d="M80.125 60H77V56.875V53.75V50.625V47.5V44.375V41.25V38.125V35H73.875H70.75V38.125V41.25H67.625H64.5V38.125V35H67.625H70.75V31.875V28.75H73.875H77V25.625V22.5H80.125H83.25V25.625V28.75V31.875V35V38.125V41.25V44.375V47.5V50.625V53.75V56.875V60H80.125ZM55.125 60H52V56.875V53.75V50.625V47.5V44.375V41.25V38.125V35V31.875V28.75V25.625V22.5H55.125H58.25V25.625V28.75H61.375H64.5V31.875V35H61.375H58.25V38.125V41.25V44.375V47.5V50.625V53.75V56.875V60H55.125ZM98.875 60H95.75H92.625H89.5V56.875V53.75H92.625V50.625V47.5V44.375V41.25V38.125V35V31.875V28.75H89.5V25.625V22.5H92.625H95.75H98.875H102V25.625V28.75H98.875V31.875V35V38.125V41.25V44.375V47.5V50.625V53.75H102V56.875V60H98.875ZM133.25 60H130.125V56.875V53.75V50.625V47.5V44.375H127H123.875V41.25V38.125H127H130.125V35V31.875V28.75V25.625V22.5H133.25H136.375V25.625V28.75V31.875V35V38.125V41.25V44.375V47.5V50.625V53.75V56.875V60H133.25ZM108.25 60H105.125V56.875V53.75V50.625V47.5V44.375V41.25V38.125V35V31.875V28.75V25.625V22.5H108.25H111.375V25.625H114.5H117.625V28.75V31.875H120.75H123.875V35V38.125H120.75H117.625V35V31.875H114.5H111.375V35V38.125V41.25V44.375V47.5V50.625V53.75V56.875V60H108.25ZM167.625 60H164.5H161.375H158.25H155.125H152H148.875H145.75H142.625H139.5V56.875V53.75V50.625V47.5V44.375V41.25V38.125V35V31.875V28.75V25.625V22.5H142.625H145.75H148.875H152H155.125H158.25H161.375H164.5H167.625H170.75V25.625V28.75H167.625H164.5H161.375H158.25H155.125H152H148.875H145.75V31.875V35H148.875H152H155.125V38.125V41.25H152H148.875H145.75V44.375V47.5V50.625V53.75H148.875H152H155.125H158.25H161.375H164.5H167.625H170.75V56.875V60H167.625ZM202 60H198.875H195.75H192.625H189.5H186.375H183.25H180.125V56.875V53.75H183.25H186.375H189.5H192.625H195.75H198.875H202V50.625V47.5H205.125H208.25V50.625V53.75H205.125V56.875V60H202ZM180.125 53.75H177H173.875V50.625V47.5V44.375V41.25V38.125V35V31.875V28.75H177H180.125V31.875V35V38.125V41.25V44.375V47.5V50.625V53.75ZM205.125 35H202V31.875V28.75H198.875H195.75H192.625H189.5H186.375H183.25H180.125V25.625V22.5H183.25H186.375H189.5H192.625H195.75H198.875H202H205.125V25.625V28.75H208.25V31.875V35H205.125ZM245.75 60H242.625V56.875V53.75H245.75H248.875V56.875V60H245.75ZM214.5 60H211.375V56.875V53.75V50.625V47.5V44.375V41.25V38.125V35V31.875V28.75V25.625V22.5H214.5H217.625H220.75H223.875H227H230.125H233.25H236.375H239.5V25.625V28.75H242.625H245.75V31.875V35H242.625H239.5V31.875V28.75H236.375H233.25H230.125H227H223.875H220.75H217.625V31.875V35H220.75H223.875H227H230.125H233.25H236.375H239.5V38.125V41.25H236.375V44.375V47.5H239.5H242.625V50.625V53.75H239.5H236.375V50.625V47.5H233.25H230.125V44.375V41.25H227H223.875H220.75H217.625V44.375V47.5V50.625V53.75V56.875V60H214.5ZM277 60H273.875V56.875V53.75V50.625V47.5V44.375V41.25H270.75H267.625H264.5H261.375H258.25V44.375V47.5V50.625V53.75V56.875V60H255.125H252V56.875V53.75V50.625V47.5V44.375V41.25V38.125V35V31.875V28.75H255.125H258.25V31.875V35H261.375H264.5H267.625H270.75H273.875V31.875V28.75H277H280.125V31.875V35V38.125V41.25V44.375V47.5V50.625V53.75V56.875V60H277ZM273.875 28.75H270.75H267.625H264.5H261.375H258.25V25.625V22.5H261.375H264.5H267.625H270.75H273.875V25.625V28.75ZM286.375 60H283.25V56.875V53.75V50.625V47.5V44.375V41.25V38.125V35V31.875V28.75V25.625V22.5H286.375H289.5H292.625H295.75H298.875H302H305.125H308.25H311.375V25.625V28.75H308.25H305.125H302H298.875H295.75H292.625H289.5V31.875V35H292.625H295.75H298.875H302V38.125V41.25H298.875H295.75H292.625H289.5V44.375V47.5V50.625V53.75V56.875V60H286.375ZM330.125 60H327V56.875V53.75V50.625V47.5V44.375V41.25V38.125V35V31.875V28.75H323.875H320.75H317.625H314.5V25.625V22.5H317.625H320.75H323.875H327H330.125H333.25H336.375H339.5H342.625H345.75V25.625V28.75H342.625H339.5H336.375H333.25V31.875V35V38.125V41.25V44.375V47.5V50.625V53.75V56.875V60H330.125Z" fill="#0081A7"/>
<path d="M80.125 60H77V56.875V53.75V50.625V47.5V44.375V41.25V38.125V35H73.875H70.75V38.125V41.25H67.625H64.5V38.125V35H67.625H70.75V31.875V28.75H73.875H77V25.625V22.5H80.125H83.25V25.625V28.75V31.875V35V38.125V41.25V44.375V47.5V50.625V53.75V56.875V60H80.125ZM55.125 60H52V56.875V53.75V50.625V47.5V44.375V41.25V38.125V35V31.875V28.75V25.625V22.5H55.125H58.25V25.625V28.75H61.375H64.5V31.875V35H61.375H58.25V38.125V41.25V44.375V47.5V50.625V53.75V56.875V60H55.125ZM98.875 60H95.75H92.625H89.5V56.875V53.75H92.625V50.625V47.5V44.375V41.25V38.125V35V31.875V28.75H89.5V25.625V22.5H92.625H95.75H98.875H102V25.625V28.75H98.875V31.875V35V38.125V41.25V44.375V47.5V50.625V53.75H102V56.875V60H98.875ZM133.25 60H130.125V56.875V53.75V50.625V47.5V44.375H127H123.875V41.25V38.125H127H130.125V35V31.875V28.75V25.625V22.5H133.25H136.375V25.625V28.75V31.875V35V38.125V41.25V44.375V47.5V50.625V53.75V56.875V60H133.25ZM108.25 60H105.125V56.875V53.75V50.625V47.5V44.375V41.25V38.125V35V31.875V28.75V25.625V22.5H108.25H111.375V25.625H114.5H117.625V28.75V31.875H120.75H123.875V35V38.125H120.75H117.625V35V31.875H114.5H111.375V35V38.125V41.25V44.375V47.5V50.625V53.75V56.875V60H108.25ZM167.625 60H164.5H161.375H158.25H155.125H152H148.875H145.75H142.625H139.5V56.875V53.75V50.625V47.5V44.375V41.25V38.125V35V31.875V28.75V25.625V22.5H142.625H145.75H148.875H152H155.125H158.25H161.375H164.5H167.625H170.75V25.625V28.75H167.625H164.5H161.375H158.25H155.125H152H148.875H145.75V31.875V35H148.875H152H155.125V38.125V41.25H152H148.875H145.75V44.375V47.5V50.625V53.75H148.875H152H155.125H158.25H161.375H164.5H167.625H170.75V56.875V60H167.625ZM202 60H198.875H195.75H192.625H189.5H186.375H183.25H180.125V56.875V53.75H183.25H186.375H189.5H192.625H195.75H198.875H202V50.625V47.5H205.125H208.25V50.625V53.75H205.125V56.875V60H202ZM180.125 53.75H177H173.875V50.625V47.5V44.375V41.25V38.125V35V31.875V28.75H177H180.125V31.875V35V38.125V41.25V44.375V47.5V50.625V53.75ZM205.125 35H202V31.875V28.75H198.875H195.75H192.625H189.5H186.375H183.25H180.125V25.625V22.5H183.25H186.375H189.5H192.625H195.75H198.875H202H205.125V25.625V28.75H208.25V31.875V35H205.125ZM245.75 60H242.625V56.875V53.75H245.75H248.875V56.875V60H245.75ZM214.5 60H211.375V56.875V53.75V50.625V47.5V44.375V41.25V38.125V35V31.875V28.75V25.625V22.5H214.5H217.625H220.75H223.875H227H230.125H233.25H236.375H239.5V25.625V28.75H242.625H245.75V31.875V35H242.625H239.5V31.875V28.75H236.375H233.25H230.125H227H223.875H220.75H217.625V31.875V35H220.75H223.875H227H230.125H233.25H236.375H239.5V38.125V41.25H236.375V44.375V47.5H239.5H242.625V50.625V53.75H239.5H236.375V50.625V47.5H233.25H230.125V44.375V41.25H227H223.875H220.75H217.625V44.375V47.5V50.625V53.75V56.875V60H214.5ZM277 60H273.875V56.875V53.75V50.625V47.5V44.375V41.25H270.75H267.625H264.5H261.375H258.25V44.375V47.5V50.625V53.75V56.875V60H255.125H252V56.875V53.75V50.625V47.5V44.375V41.25V38.125V35V31.875V28.75H255.125H258.25V31.875V35H261.375H264.5H267.625H270.75H273.875V31.875V28.75H277H280.125V31.875V35V38.125V41.25V44.375V47.5V50.625V53.75V56.875V60H277ZM273.875 28.75H270.75H267.625H264.5H261.375H258.25V25.625V22.5H261.375H264.5H267.625H270.75H273.875V25.625V28.75ZM286.375 60H283.25V56.875V53.75V50.625V47.5V44.375V41.25V38.125V35V31.875V28.75V25.625V22.5H286.375H289.5H292.625H295.75H298.875H302H305.125H308.25H311.375V25.625V28.75H308.25H305.125H302H298.875H295.75H292.625H289.5V31.875V35H292.625H295.75H298.875H302V38.125V41.25H298.875H295.75H292.625H289.5V44.375V47.5V50.625V53.75V56.875V60H286.375ZM330.125 60H327V56.875V53.75V50.625V47.5V44.375V41.25V38.125V35V31.875V28.75H323.875H320.75H317.625H314.5V25.625V22.5H317.625H320.75H323.875H327H330.125H333.25H336.375H339.5H342.625H345.75V25.625V28.75H342.625H339.5H336.375H333.25V31.875V35V38.125V41.25V44.375V47.5V50.625V53.75V56.875V60H330.125Z" fill="url(#paint0_linear)"/>
<path d="M150.74 84.8C151.553 84.9733 152.207 85.38 152.7 86.02C153.193 86.6467 153.44 87.3667 153.44 88.18C153.44 89.3533 153.027 90.2867 152.2 90.98C151.387 91.66 150.247 92 148.78 92H142.24V77.96H148.56C149.987 77.96 151.1 78.2867 151.9 78.94C152.713 79.5933 153.12 80.48 153.12 81.6C153.12 82.4267 152.9 83.1133 152.46 83.66C152.033 84.2067 151.46 84.5867 150.74 84.8ZM145.66 83.64H147.9C148.46 83.64 148.887 83.52 149.18 83.28C149.487 83.0267 149.64 82.66 149.64 82.18C149.64 81.7 149.487 81.3333 149.18 81.08C148.887 80.8267 148.46 80.7 147.9 80.7H145.66V83.64ZM148.18 89.24C148.753 89.24 149.193 89.1133 149.5 88.86C149.82 88.5933 149.98 88.2133 149.98 87.72C149.98 87.2267 149.813 86.84 149.48 86.56C149.16 86.28 148.713 86.14 148.14 86.14H145.66V89.24H148.18ZM158.844 89.36H163.324V92H155.424V77.96H158.844V89.36ZM171.595 92.14C170.275 92.14 169.062 91.8333 167.955 91.22C166.862 90.6067 165.988 89.7533 165.335 88.66C164.695 87.5533 164.375 86.3133 164.375 84.94C164.375 83.5667 164.695 82.3333 165.335 81.24C165.988 80.1467 166.862 79.2933 167.955 78.68C169.062 78.0667 170.275 77.76 171.595 77.76C172.915 77.76 174.122 78.0667 175.215 78.68C176.322 79.2933 177.188 80.1467 177.815 81.24C178.455 82.3333 178.775 83.5667 178.775 84.94C178.775 86.3133 178.455 87.5533 177.815 88.66C177.175 89.7533 176.308 90.6067 175.215 91.22C174.122 91.8333 172.915 92.14 171.595 92.14ZM171.595 89.02C172.715 89.02 173.608 88.6467 174.275 87.9C174.955 87.1533 175.295 86.1667 175.295 84.94C175.295 83.7 174.955 82.7133 174.275 81.98C173.608 81.2333 172.715 80.86 171.595 80.86C170.462 80.86 169.555 81.2267 168.875 81.96C168.208 82.6933 167.875 83.6867 167.875 84.94C167.875 86.18 168.208 87.1733 168.875 87.92C169.555 88.6533 170.462 89.02 171.595 89.02ZM180.097 84.96C180.097 83.5733 180.398 82.34 180.998 81.26C181.598 80.1667 182.431 79.32 183.498 78.72C184.578 78.1067 185.798 77.8 187.158 77.8C188.824 77.8 190.251 78.24 191.438 79.12C192.624 80 193.418 81.2 193.818 82.72H190.058C189.778 82.1333 189.378 81.6867 188.858 81.38C188.351 81.0733 187.771 80.92 187.118 80.92C186.064 80.92 185.211 81.2867 184.558 82.02C183.904 82.7533 183.578 83.7333 183.578 84.96C183.578 86.1867 183.904 87.1667 184.558 87.9C185.211 88.6333 186.064 89 187.118 89C187.771 89 188.351 88.8467 188.858 88.54C189.378 88.2333 189.778 87.7867 190.058 87.2H193.818C193.418 88.72 192.624 89.92 191.438 90.8C190.251 91.6667 188.824 92.1 187.158 92.1C185.798 92.1 184.578 91.8 183.498 91.2C182.431 90.5867 181.598 89.74 180.998 88.66C180.398 87.58 180.097 86.3467 180.097 84.96ZM204.052 92L199.332 85.8V92H195.912V77.96H199.332V84.12L204.012 77.96H208.032L202.592 84.84L208.232 92H204.052ZM233.415 77.96L229.755 92H225.615L223.375 82.76L221.055 92H216.915L213.355 77.96H217.015L219.035 88.18L221.535 77.96H225.295L227.695 88.18L229.735 77.96H233.415ZM238.551 77.96V92H235.131V77.96H238.551ZM249.169 92L244.449 85.8V92H241.029V77.96H244.449V84.12L249.129 77.96H253.149L247.709 84.84L253.349 92H249.169ZM258.394 77.96V92H254.974V77.96H258.394Z" fill="#0081A7"/>
<path d="M150.74 84.8C151.553 84.9733 152.207 85.38 152.7 86.02C153.193 86.6467 153.44 87.3667 153.44 88.18C153.44 89.3533 153.027 90.2867 152.2 90.98C151.387 91.66 150.247 92 148.78 92H142.24V77.96H148.56C149.987 77.96 151.1 78.2867 151.9 78.94C152.713 79.5933 153.12 80.48 153.12 81.6C153.12 82.4267 152.9 83.1133 152.46 83.66C152.033 84.2067 151.46 84.5867 150.74 84.8ZM145.66 83.64H147.9C148.46 83.64 148.887 83.52 149.18 83.28C149.487 83.0267 149.64 82.66 149.64 82.18C149.64 81.7 149.487 81.3333 149.18 81.08C148.887 80.8267 148.46 80.7 147.9 80.7H145.66V83.64ZM148.18 89.24C148.753 89.24 149.193 89.1133 149.5 88.86C149.82 88.5933 149.98 88.2133 149.98 87.72C149.98 87.2267 149.813 86.84 149.48 86.56C149.16 86.28 148.713 86.14 148.14 86.14H145.66V89.24H148.18ZM158.844 89.36H163.324V92H155.424V77.96H158.844V89.36ZM171.595 92.14C170.275 92.14 169.062 91.8333 167.955 91.22C166.862 90.6067 165.988 89.7533 165.335 88.66C164.695 87.5533 164.375 86.3133 164.375 84.94C164.375 83.5667 164.695 82.3333 165.335 81.24C165.988 80.1467 166.862 79.2933 167.955 78.68C169.062 78.0667 170.275 77.76 171.595 77.76C172.915 77.76 174.122 78.0667 175.215 78.68C176.322 79.2933 177.188 80.1467 177.815 81.24C178.455 82.3333 178.775 83.5667 178.775 84.94C178.775 86.3133 178.455 87.5533 177.815 88.66C177.175 89.7533 176.308 90.6067 175.215 91.22C174.122 91.8333 172.915 92.14 171.595 92.14ZM171.595 89.02C172.715 89.02 173.608 88.6467 174.275 87.9C174.955 87.1533 175.295 86.1667 175.295 84.94C175.295 83.7 174.955 82.7133 174.275 81.98C173.608 81.2333 172.715 80.86 171.595 80.86C170.462 80.86 169.555 81.2267 168.875 81.96C168.208 82.6933 167.875 83.6867 167.875 84.94C167.875 86.18 168.208 87.1733 168.875 87.92C169.555 88.6533 170.462 89.02 171.595 89.02ZM180.097 84.96C180.097 83.5733 180.398 82.34 180.998 81.26C181.598 80.1667 182.431 79.32 183.498 78.72C184.578 78.1067 185.798 77.8 187.158 77.8C188.824 77.8 190.251 78.24 191.438 79.12C192.624 80 193.418 81.2 193.818 82.72H190.058C189.778 82.1333 189.378 81.6867 188.858 81.38C188.351 81.0733 187.771 80.92 187.118 80.92C186.064 80.92 185.211 81.2867 184.558 82.02C183.904 82.7533 183.578 83.7333 183.578 84.96C183.578 86.1867 183.904 87.1667 184.558 87.9C185.211 88.6333 186.064 89 187.118 89C187.771 89 188.351 88.8467 188.858 88.54C189.378 88.2333 189.778 87.7867 190.058 87.2H193.818C193.418 88.72 192.624 89.92 191.438 90.8C190.251 91.6667 188.824 92.1 187.158 92.1C185.798 92.1 184.578 91.8 183.498 91.2C182.431 90.5867 181.598 89.74 180.998 88.66C180.398 87.58 180.097 86.3467 180.097 84.96ZM204.052 92L199.332 85.8V92H195.912V77.96H199.332V84.12L204.012 77.96H208.032L202.592 84.84L208.232 92H204.052ZM233.415 77.96L229.755 92H225.615L223.375 82.76L221.055 92H216.915L213.355 77.96H217.015L219.035 88.18L221.535 77.96H225.295L227.695 88.18L229.735 77.96H233.415ZM238.551 77.96V92H235.131V77.96H238.551ZM249.169 92L244.449 85.8V92H241.029V77.96H244.449V84.12L249.129 77.96H253.149L247.709 84.84L253.349 92H249.169ZM258.394 77.96V92H254.974V77.96H258.394Z" fill="url(#paint1_linear)"/>
<defs>
<linearGradient id="paint0_linear" x1="52" y1="47" x2="349" y2="47" gradientUnits="userSpaceOnUse">
<stop stop-color="#00AFB9"/>
<stop offset="1" stop-color="white" stop-opacity="0"/>
</linearGradient>
<linearGradient id="paint1_linear" x1="141" y1="85" x2="260" y2="85" gradientUnits="userSpaceOnUse">
<stop stop-color="#00AFB9"/>
<stop offset="1" stop-color="white" stop-opacity="0"/>
</linearGradient>
</defs>
</svg>
